<svg xmlns="http://www.w3.org/2000/svg" viewBox="0 0 156 156" 
width="64px" height="64px"><g fill="none"><g><path d="M54.124 
0h46.994c15.585 0 
23.375 0 31.765 2.652a32.972 32.972 0 0 1 19.707 19.707c2.652 8.388 2.652 16.181 2.652 31.765v46.994c0 15.585 0 23.375-2.652 31.765a32.966 32.966 0 0 1-19.707 19.705c-8.39 2.654-16.18 2.654-31.765 2.654H54.124c-15.585 0-23.377 0-31.765-2.654a32.964 32.964 0 0 1-19.707-19.705C0 124.493 0 116.703 0 101.118V54.124C0 38.54 0 30.747 2.652 22.359A32.97 32.97 0 0 1 22.359 2.652C30.747 0 38.539 0 54.124 0z" fill="#449BF7"/></g><g><path fill-rule="evenodd" clip-rule="evenodd" d="M117.037 90.406c0 18.673-14.792 33.81-33.038 33.81-18.005 0-32.646-14.74-33.03-33.07h-4.247c.385 20.73 16.927 37.414 37.277 37.414 20.591 0 37.284-17.082 37.284-38.154 0-20.687-16.09-37.53-36.163-38.136v4.347c17.728.605 31.917 15.501 31.917 33.79z" fill="#fff"/><path fill-rule="evenodd" clip-rule="evenodd" d="M109.704 90.406c0 14.528-11.508 26.305-25.705 26.305-13.84 0-25.125-11.192-25.684-25.214h-4.248c.561 16.422 13.747 29.559 29.932 29.559 16.542 0 29.951-13.722 29.951-30.65 0-16.928-13.41-30.65-29.95-30.65-.593 0-1.18.018-1.764.052h3.395v4.345c13.436.861 24.073 12.286 24.073 26.253z" fill="#fff"/><path d="M54.088 29.269c0-1.2.95-2.173 2.123-2.173 1.172 0 2.122.973 2.122 2.173v62.228h-4.245V29.269zM75.229 56.614v-4.345H85.63v4.345H75.23zM61.476 47.377h4.245v43.768h-4.245V47.377zM46.715 47.377h4.245v43.768h-4.245V47.377z" fill="#fff"/><path d="M63.972 71.698v-4.345h19.794v4.345H63.972zM63.152 64.153v-4.345H85.63v4.345H63.152zM46.442 64.1c-1.172 0-2.123-.972-2.123-2.172 0-1.2.95-2.172 2.123-2.172h2.649v4.345h-2.649z" fill="#fff"/><path fill-rule="evenodd" clip-rule="evenodd" d="M65.706 29.122c0-5.366-4.25-9.717-9.495-9.717-5.244 0-9.496 4.35-9.496 9.717V61.54h4.246V29.12c0-2.967 2.35-5.372 5.25-5.372s5.25 2.405 5.25 5.372v32.42h4.245V29.122zM61.487 91.146c.382 12.387 10.314 22.309 22.512 22.309 12.438 0 22.522-10.32 22.522-23.049S96.437 67.358 84 67.358l-.234.001v4.345l.234-.001c10.094 0 18.277 8.373 18.277 18.703s-8.183 18.704-18.277 18.704c-9.853 0-17.884-7.977-18.264-17.964h-4.248z" fill="#fff"/><path fill-rule="evenodd" clip-rule="evenodd" d="M45.88 52.263h4.33v4.345h-4.332c-2.9 0-5.25 2.405-5.25 5.372s2.35 5.373 5.25 5.373h3.655v4.344H45.88c-5.244 0-9.495-4.35-9.495-9.717 0-5.367 4.251-9.717 9.495-9.717zm18.014 19.434H77.56v-4.344H63.894v4.344zm13.665-15.09H62.411v-4.344h15.148v4.345z" fill="#fff"/></g></g></svg>
