<?xml version="1.0" encoding="UTF-8"?>
<svg width="25px" height="41px" viewBox="0 0 25 41" version="1.1" xmlns="http://www.w3.org/2000/svg" xmlns:xlink="http://www.w3.org/1999/xlink">
    <!-- Generator: Sketch 52.4 (67378) - http://www.bohemiancoding.com/sketch -->
    <title>Logo Copy 2</title>
    <desc>Created with Sketch.</desc>
    <g id="Symbols" stroke="none" stroke-width="1" fill="none" fill-rule="evenodd">
        <g id="Logo-Copy-2" fill="#000000" fill-rule="nonzero">
            <path d="M3.09422492,38.2142857 L10,41 L10,32 L3.09422492,34.7857143 C1.63525836,35.3214286 1.63525836,37.6785714 3.09422492,38.2142857 Z" id="path13"></path>
            <path d="M0,24.7916667 L0,31.3541667 L0,35 C0,34.2708333 0.418848168,33.6458333 1.15183246,33.3333333 L16.4397906,27.8125 L17.591623,27.3958333 C19.0575916,26.875 20,25.5208333 20,24.0625 L20,15 L2.40837696,21.4583333 C0.942408377,21.9791667 0,23.3333333 0,24.7916667 Z" id="path15"></path>
            <path d="M0,11.5339806 L0,18.2621359 L0,22 C0,21.2524272 0.413793103,20.6116505 1.13793103,20.2912621 L21.6206897,12.6019417 C23.0689655,12.0679612 24,10.6796117 24,9.18446602 L24,0 L2.37931034,8.11650485 C0.931034483,8.65048544 0,10.038835 0,11.5339806 Z" id="path17"></path>
        </g>
    </g>
</svg>
