<?xml version="1.0" encoding="UTF-8"?>
<svg width="205px" height="72px" viewBox="0 0 205 72" version="1.1" xmlns="http://www.w3.org/2000/svg" xmlns:xlink="http://www.w3.org/1999/xlink">
    <!-- Generator: Sketch 52.6 (67491) - http://www.bohemiancoding.com/sketch -->
    <title>Slice</title>
    <desc>Created with Sketch.</desc>
    <g id="/bites" stroke="none" stroke-width="1" fill="none" fill-rule="evenodd">
        <g id="Group-7" fill="#F8E71C">
            <path d="M145.85002,19.9564938 L162.91468,-7.03437308e-13 L154.472475,19.9564938 L170.146103,19.9564938 L170.146103,26.5388442 L154.364907,45.1136961 L170.326459,45.1136961 L170.326459,51.9214695 L144.941279,51.9214695 L144.941279,45.0686115 L160.361762,26.7642672 L145.617616,26.7642672 L145.617616,19.9564938 L145.85002,19.9564938 Z M140.52979,51.9214695 L140.698245,52.0383192 L123.629151,72 L132.122981,51.9214695 L115.90388,51.9214695 L115.90388,45.0686115 L131.324362,26.7642672 L116.580217,26.7642672 L116.580217,19.9564938 L141.108703,19.9564938 L141.108703,26.5388442 L125.327508,45.1136961 L141.28906,45.1136961 L141.28906,51.9214695 L140.52979,51.9214695 Z M83.1691716,34.2933941 L87.3173715,34.2933941 C90.0227193,34.2933941 91.8713736,32.7154333 91.8713736,30.2357808 C91.8713736,27.665959 90.0227193,26.1330829 87.3173715,26.1330829 L83.1691716,26.1330829 L83.1691716,34.2933941 Z M88.0387976,40.4248985 L83.1240825,40.4248985 L83.1240825,51.9214695 L76,51.9214695 L76,19.9564938 L88.0387976,19.9564938 C94.5316323,19.9564938 98.9954561,24.2395301 98.9954561,30.1906962 C98.9954561,36.2320315 94.5316323,40.4248985 88.0387976,40.4248985 Z M110.853897,51.9214695 L103.639636,51.9214695 L103.639636,19.9564938 L110.853897,19.9564938 L110.853897,51.9214695 Z M197.24467,51.9214695 L194.945124,45.4292882 L182.590703,45.4292882 L180.291157,51.9214695 L172.806361,51.9214695 L184.845159,19.9564938 L193.09647,19.9564938 L205,51.9214695 L197.24467,51.9214695 Z M188.858092,27.891382 L184.935337,38.937107 L192.690668,38.937107 L188.858092,27.891382 Z" id="Combined-Shape"></path>
            <path d="M21.8563409,51.6080882 L0.976340944,51.6080882 L0.976340944,19.7030882 L8.08634094,19.7030882 L8.08634094,44.8130882 L21.8563409,44.8130882 L21.8563409,51.6080882 Z M54.19,51.6606031 L46.675,51.6606031 L33.535,28.935 L33.535,51.6606031 L26.47,51.6606031 L26.47,19.7556031 L35.11,19.7556031 L47.08,39.1506031 L47.08,19.7556031 L54.19,19.7556031 L54.19,51.6606031 Z M61.0225,47.0986997 C61.0225,44.5786997 63.0925,42.5086997 65.6125,42.5086997 C68.1325,42.5086997 70.2475,44.5786997 70.2475,47.0986997 C70.2475,49.5736997 68.1325,51.7336997 65.6125,51.7336997 C63.0925,51.7336997 61.0225,49.5736997 61.0225,47.0986997 Z" id="LN."></path>
        </g>
    </g>
</svg>